<svg width="267" height="66" viewBox="0 0 267 66" fill="none" xmlns="http://www.w3.org/2000/svg">
<path d="M37.0619 23.5663C33.1345 22.9692 29.12 23.3734 25.3905 24.7415L24.6204 25.0353C19.5733 27.0806 14.0679 27.7265 8.6845 26.9048C6.37424 26.5487 3.96605 25.9745 1.85611 24.9218C1.08727 24.5408 0.494654 23.8783 0.201244 23.072C-0.0921664 22.2656 -0.0638394 21.3773 0.280346 20.5913C0.624531 19.8053 1.25814 19.1819 2.04969 18.8507C2.84125 18.5194 3.72995 18.5057 4.53138 18.8123L4.82517 18.9414C6.34308 19.6536 8.0524 20.052 9.69941 20.3057C12.6907 20.7642 16.7837 20.7953 21.3709 19.1283L22.141 18.8345C27.188 16.7892 32.6934 16.1433 38.0768 16.965C40.3871 17.3211 42.7931 17.8975 44.9008 18.9458C45.6882 19.3475 46.2862 20.0425 46.566 20.881C46.8458 21.7195 46.7849 22.6343 46.3964 23.4283C45.5751 25.0731 43.8992 25.447 41.9339 24.9284L37.0619 23.5663Z" fill="#E1EACD"/>
<path d="M37.0619 38.1078C33.1345 37.5107 29.12 37.9149 25.3905 39.283L24.6204 39.5768C19.5733 41.6221 14.0679 42.268 8.6845 41.4463C6.37424 41.0902 3.96605 40.516 1.85611 39.4633C1.08727 39.0823 0.494654 38.4198 0.201244 37.6135C-0.0921664 36.8072 -0.0638394 35.9188 0.280346 35.1328C0.624531 34.3468 1.25814 33.7235 2.04969 33.3922C2.84125 33.0609 3.72995 33.0472 4.53138 33.3538L4.82517 33.4829C6.34308 34.1951 8.0524 34.5935 9.69941 34.8472C12.6907 35.3057 16.7837 35.3369 21.3709 33.6698L22.141 33.376C27.188 31.3307 32.6934 30.6848 38.0768 31.5065C40.3871 31.8626 42.7931 32.439 44.9008 33.4873C45.6882 33.889 46.2862 34.584 46.566 35.4225C46.8458 36.261 46.7849 37.1758 46.3964 37.9698C45.5751 39.6146 43.8992 39.9885 41.9339 39.4699L37.0619 38.1078Z" fill="#BAD8B6"/>
<path d="M37.0619 52.6493C33.1345 52.0522 29.12 52.4564 25.3905 53.8245L24.6204 54.1183C19.5733 56.1636 14.0679 56.8095 8.6845 55.9879C6.37424 55.6317 3.96605 55.0575 1.85611 54.0048C1.08727 53.6238 0.494654 52.9613 0.201244 52.155C-0.0921664 51.3487 -0.0638394 50.4603 0.280346 49.6743C0.624531 48.8883 1.25814 48.265 2.04969 47.9337C2.84125 47.6024 3.72995 47.5887 4.53138 47.8953L4.82517 48.0244C6.34308 48.7366 8.0524 49.135 9.69941 49.3887C12.6907 49.8472 16.7837 49.8784 21.3709 48.2113L22.141 47.9175C27.188 45.8722 32.6934 45.2263 38.0768 46.048C40.3871 46.4041 42.7931 46.9805 44.9008 48.0288C45.6882 48.4305 46.2862 49.1255 46.566 49.964C46.8458 50.8025 46.7849 51.7173 46.3964 52.5113C45.5751 54.1561 43.8992 54.53 41.9339 54.0114L37.0619 52.6493Z" fill="#61B390"/>
<path d="M71.5493 53.455C69.062 53.455 66.6809 53.1972 64.4059 52.6815C62.1309 52.1658 60.2503 51.453 58.764 50.543L60.6749 42.8081C61.7366 43.3844 62.9347 43.9153 64.2694 44.4006C65.6344 44.8859 66.9994 45.2651 68.3644 45.5381C69.7597 45.8111 71.0185 45.9476 72.1408 45.9476C73.4755 45.9476 74.4916 45.7352 75.1893 45.3106C75.8869 44.8859 76.2358 44.2641 76.2358 43.4451C76.2358 43.0508 76.1296 42.7019 75.9173 42.3986C75.705 42.0649 75.341 41.7616 74.8253 41.4886C74.3096 41.1853 73.5816 40.882 72.6413 40.5786C71.7313 40.245 70.5635 39.881 69.1379 39.4866C67.3482 39.0013 65.8012 38.425 64.4969 37.7577C63.1926 37.0903 62.1158 36.332 61.2664 35.4827C60.4171 34.6334 59.7801 33.6779 59.3555 32.6162C58.9611 31.5546 58.764 30.3867 58.764 29.1127C58.764 25.9581 59.9773 23.5466 62.4039 21.8783C64.8609 20.1797 68.3644 19.3303 72.9143 19.3303C75.1286 19.3303 77.3126 19.5275 79.4662 19.9218C81.6502 20.2858 83.546 20.8167 85.1537 21.5143L83.2427 29.2492C81.6047 28.4606 79.8757 27.8691 78.0558 27.4748C76.2661 27.0501 74.5068 26.8378 72.7778 26.8378C71.2612 26.8378 70.1388 27.0198 69.4108 27.3838C68.6829 27.7174 68.3189 28.2786 68.3189 29.0672C68.3189 29.4919 68.4099 29.8862 68.5919 30.2502C68.7739 30.5839 69.1075 30.9024 69.5928 31.2057C70.0782 31.5091 70.7455 31.8276 71.5948 32.1612C72.4745 32.4949 73.5968 32.8589 74.9618 33.2532C76.9031 33.8295 78.5563 34.4514 79.9212 35.1187C81.2862 35.786 82.3934 36.5292 83.2427 37.3482C84.1224 38.1368 84.7594 39.0468 85.1537 40.0781C85.5783 41.0791 85.7907 42.2014 85.7907 43.4451C85.7907 46.6604 84.547 49.1325 82.0597 50.8615C79.6027 52.5905 76.0993 53.455 71.5493 53.455ZM100.384 53.455C97.1083 53.455 94.7272 52.8028 93.2409 51.4985C91.7849 50.1942 91.0569 48.1164 91.0569 45.2651V35.7102H86.6434V29.3402H91.0569V21.6053H100.066V29.3402H106.663V35.7102H100.066V43.9001C100.066 44.9314 100.233 45.6442 100.566 46.0386C100.93 46.4329 101.552 46.6301 102.432 46.6301C102.978 46.6301 103.554 46.5694 104.161 46.4481C104.767 46.3267 105.329 46.1599 105.844 45.9476L106.527 52.545C105.404 52.8483 104.373 53.0758 103.433 53.2275C102.492 53.3792 101.476 53.455 100.384 53.455ZM111.081 53V29.3402H119.635L119.726 33.4352H119.817C120.727 32.4342 121.698 31.6001 122.729 30.9327C123.79 30.2351 124.913 29.7194 126.096 29.3857C127.279 29.0521 128.492 28.8852 129.736 28.8852V36.1652C127.976 36.1652 126.354 36.4685 124.867 37.0752C123.411 37.6818 122.244 38.5008 121.364 39.5321C120.515 40.5635 120.09 41.7161 120.09 42.9901V53H111.081ZM138.544 53.455C136.33 53.455 134.555 52.8028 133.22 51.4985C131.916 50.1639 131.264 48.3894 131.264 46.1751C131.264 43.5664 132.295 41.5493 134.358 40.1236C136.421 38.698 139.332 37.9852 143.094 37.9852H145.551C145.551 36.9538 145.278 36.241 144.732 35.8467C144.216 35.4523 143.276 35.2552 141.911 35.2552C140.485 35.2552 139.029 35.4372 137.543 35.8012C136.087 36.1348 134.631 36.6505 133.175 37.3482L132.219 30.9782C133.888 30.2502 135.586 29.7194 137.315 29.3857C139.075 29.0521 141.016 28.8852 143.139 28.8852C145.93 28.8852 148.144 29.1886 149.782 29.7952C151.451 30.3716 152.649 31.3271 153.377 32.6617C154.105 33.9964 154.469 35.7708 154.469 37.9852V53H146.006L145.915 50.27H145.824C144.944 51.271 143.867 52.0597 142.593 52.636C141.319 53.182 139.969 53.455 138.544 53.455ZM142.002 47.3126C142.73 47.3126 143.352 47.2064 143.867 46.9941C144.413 46.7514 144.823 46.4329 145.096 46.0386C145.399 45.6139 145.551 45.1286 145.551 44.5826V42.7626H144.459C142.669 42.7626 141.35 42.9598 140.5 43.3541C139.681 43.7484 139.272 44.3854 139.272 45.2651C139.272 45.9324 139.499 46.4481 139.954 46.8121C140.44 47.1457 141.122 47.3126 142.002 47.3126ZM166.125 53.455C163.365 53.455 161.378 52.6512 160.165 51.0435C158.982 49.4055 158.391 46.7211 158.391 42.9901V29.3402H167.308V41.1701C167.308 42.9294 167.506 44.2034 167.9 44.9921C168.294 45.7807 168.916 46.1751 169.765 46.1751C170.402 46.1751 170.964 46.0082 171.449 45.6746C171.965 45.3409 172.374 44.9011 172.677 44.3551C172.981 43.8091 173.132 43.2024 173.132 42.5351V29.3402H182.05V53H173.587L173.496 49.815H173.405C172.374 51.1194 171.297 52.0597 170.175 52.636C169.083 53.182 167.733 53.455 166.125 53.455ZM186.973 53V29.3402H195.254L195.345 32.5252H195.436C196.346 31.2816 197.331 30.3716 198.393 29.7952C199.455 29.1886 200.653 28.8852 201.988 28.8852C203.383 28.8852 204.566 29.1886 205.537 29.7952C206.507 30.4019 207.25 31.3119 207.766 32.5252H207.857C208.949 31.1906 210.041 30.2502 211.133 29.7042C212.225 29.1582 213.56 28.8852 215.137 28.8852C217.594 28.8852 219.353 29.5981 220.415 31.0237C221.477 32.419 222.007 34.7395 222.007 37.9852V53H213.271V39.3501C213.271 38.2885 213.105 37.4998 212.771 36.9842C212.468 36.4382 212.013 36.1652 211.406 36.1652C210.678 36.1652 210.071 36.514 209.586 37.2117C209.101 37.879 208.858 38.7435 208.858 39.8051V53H200.122V39.3501C200.122 38.2885 199.955 37.4998 199.622 36.9842C199.318 36.4382 198.863 36.1652 198.257 36.1652C197.529 36.1652 196.922 36.514 196.437 37.2117C195.951 37.879 195.709 38.7435 195.709 39.8051V53H186.973ZM227.112 53V30.7052H236.212V53H227.112ZM231.662 27.9753C230.084 27.9753 228.856 27.5809 227.976 26.7923C227.097 25.9733 226.657 24.851 226.657 23.4253C226.657 21.9997 227.097 20.8925 227.976 20.1038C228.856 19.2848 230.084 18.8754 231.662 18.8754C233.239 18.8754 234.468 19.2848 235.347 20.1038C236.227 20.8925 236.667 21.9997 236.667 23.4253C236.667 24.851 236.227 25.9733 235.347 26.7923C234.468 27.5809 233.239 27.9753 231.662 27.9753ZM240.256 53L246.399 41.1701L240.256 29.3402H249.447L252.496 36.6202H252.587L255.635 29.3402H264.826L258.684 41.1701L264.826 53H255.635L252.587 45.7201H252.496L249.447 53H240.256Z" fill="black"/>
</svg>
