<svg width="85" height="72" viewBox="0 0 85 72" fill="none" xmlns="http://www.w3.org/2000/svg">
<path d="M67.1884 12.5957C60.0686 11.5131 52.7906 12.2459 46.0295 14.7261L44.6335 15.2587C35.4838 18.9666 25.5033 20.1375 15.7438 18.648C11.5557 18.0024 7.18993 16.9614 3.36488 15.0529C1.97108 14.3622 0.896742 13.1613 0.364828 11.6995C-0.167086 10.2377 -0.115732 8.62723 0.50823 7.20229C1.13219 5.77735 2.28085 4.64736 3.71583 4.04684C5.1508 3.44632 6.76191 3.42138 8.21479 3.97718L8.74739 4.2112C11.4992 5.50236 14.5979 6.2246 17.5837 6.68457C23.0066 7.51575 30.4267 7.57224 38.7426 4.55013L40.1386 4.01753C49.2883 0.309556 59.2689 -0.861346 69.0283 0.62824C73.2165 1.27382 77.5782 2.31885 81.3992 4.21927C82.8267 4.94744 83.9108 6.20736 84.418 7.72745C84.9252 9.24753 84.8148 10.9061 84.1106 12.3455C82.6217 15.3273 79.5835 16.0051 76.0207 15.065L67.1884 12.5957Z" fill="#415EFF"/>
<path d="M67.1884 38.9576C60.0685 37.875 52.7906 38.6078 46.0295 41.088L44.6335 41.6206C35.4838 45.3285 25.5033 46.4994 15.7438 45.0099C11.5557 44.3643 7.18993 43.3233 3.36488 41.4148C1.97108 40.7241 0.896742 39.5232 0.364828 38.0614C-0.167086 36.5996 -0.115732 34.9891 0.50823 33.5642C1.13219 32.1393 2.28085 31.0093 3.71583 30.4087C5.1508 29.8082 6.76191 29.7833 8.21479 30.3391L8.74739 30.5731C11.4992 31.8643 14.5979 32.5865 17.5837 33.0465C23.0066 33.8777 30.4267 33.9342 38.7426 30.912L40.1386 30.3794C49.2883 26.6715 59.2688 25.5006 69.0283 26.9901C73.2165 27.6357 77.5782 28.6808 81.3992 30.5812C82.8266 31.3093 83.9108 32.5693 84.418 34.0894C84.9252 35.6094 84.8148 37.268 84.1106 38.7074C82.6217 41.6892 79.5835 42.367 76.0207 41.4269L67.1884 38.9576Z" fill="#0F8FFF"/>
<path d="M67.1884 65.3195C60.0686 64.2369 52.7906 64.9697 46.0295 67.4499L44.6335 67.9825C35.4838 71.6905 25.5033 72.8614 15.7438 71.3718C11.5557 70.7262 7.18993 69.6852 3.36488 67.7767C1.97108 67.086 0.896742 65.8851 0.364828 64.4233C-0.167086 62.9615 -0.115732 61.351 0.50823 59.9261C1.13219 58.5012 2.28085 57.3712 3.71583 56.7707C5.1508 56.1701 6.76191 56.1452 8.21479 56.701L8.74739 56.935C11.4992 58.2262 14.5979 58.9484 17.5837 59.4084C23.0066 60.2396 30.4267 60.2961 38.7426 57.2739L40.1386 56.7413C49.2883 53.0334 59.2689 51.8625 69.0283 53.3521C73.2165 53.9976 77.5782 55.0427 81.3992 56.9431C82.8267 57.6713 83.9108 58.9312 84.418 60.4513C84.9252 61.9714 84.8148 63.6299 84.1106 65.0693C82.6217 68.0511 79.5835 68.7289 76.0207 67.7888L67.1884 65.3195Z" fill="#C9FF5C"/>
</svg>
