<svg width="228" height="54" viewBox="0 0 228 54" fill="none" xmlns="http://www.w3.org/2000/svg">
<path d="M33.703 15.4119C30.1315 14.8689 26.4808 15.2364 23.0893 16.4806L22.389 16.7477C17.7994 18.6077 12.7929 19.1951 7.89741 18.4479C5.79654 18.124 3.60661 17.6018 1.68789 16.6445C0.98873 16.298 0.449823 15.6956 0.183005 14.9624C-0.0838133 14.2291 -0.0580536 13.4213 0.254938 12.7065C0.567929 11.9917 1.14412 11.4249 1.86393 11.1237C2.58374 10.8224 3.3919 10.8099 4.12069 11.0887L4.38786 11.2061C5.7682 11.8538 7.32261 12.2161 8.82034 12.4468C11.5406 12.8637 15.2626 12.8921 19.434 11.3761L20.1343 11.109C24.724 9.24897 29.7304 8.66162 34.6259 9.40883C36.7268 9.73266 38.9147 10.2569 40.8314 11.2102C41.5474 11.5754 42.0913 12.2074 42.3457 12.9699C42.6001 13.7324 42.5447 14.5644 42.1915 15.2864C41.4446 16.7821 39.9206 17.1222 38.1334 16.6506L33.703 15.4119Z" fill="#E1EACD"/>
<path d="M33.703 28.6354C30.1315 28.0924 26.4808 28.46 23.0893 29.7041L22.389 29.9712C17.7994 31.8312 12.7929 32.4186 7.89741 31.6714C5.79654 31.3475 3.60661 30.8254 1.68789 29.868C0.98873 29.5215 0.449823 28.9192 0.183005 28.1859C-0.0838133 27.4526 -0.0580536 26.6448 0.254938 25.93C0.567929 25.2152 1.14412 24.6484 1.86393 24.3472C2.58374 24.0459 3.3919 24.0334 4.12069 24.3122L4.38786 24.4296C5.7682 25.0773 7.32261 25.4396 8.82034 25.6703C11.5406 26.0872 15.2626 26.1156 19.434 24.5996L20.1343 24.3325C24.724 22.4725 29.7304 21.8851 34.6259 22.6323C36.7268 22.9562 38.9147 23.4804 40.8314 24.4337C41.5474 24.7989 42.0913 25.4309 42.3457 26.1934C42.6001 26.9559 42.5447 27.7879 42.1915 28.5099C41.4446 30.0056 39.9206 30.3457 38.1334 29.8741L33.703 28.6354Z" fill="#BAD8B6"/>
<path d="M33.703 41.8591C30.1315 41.3161 26.4808 41.6836 23.0893 42.9278L22.389 43.1949C17.7994 45.0549 12.7929 45.6423 7.89741 44.8951C5.79654 44.5712 3.60661 44.049 1.68789 43.0917C0.98873 42.7452 0.449823 42.1429 0.183005 41.4096C-0.0838133 40.6763 -0.0580536 39.8685 0.254938 39.1537C0.567929 38.4389 1.14412 37.8721 1.86393 37.5709C2.58374 37.2696 3.3919 37.2571 4.12069 37.5359L4.38786 37.6533C5.7682 38.301 7.32261 38.6633 8.82034 38.894C11.5406 39.3109 15.2626 39.3393 19.434 37.8233L20.1343 37.5562C24.724 35.6962 29.7304 35.1088 34.6259 35.856C36.7268 36.1799 38.9147 36.7041 40.8314 37.6574C41.5474 38.0226 42.0913 38.6546 42.3457 39.4171C42.6001 40.1796 42.5447 41.0116 42.1915 41.7336C41.4446 43.2293 39.9206 43.5694 38.1334 43.0978L33.703 41.8591Z" fill="#61B390"/>
<path d="M59.9402 43.4849C58.2296 43.4849 56.8087 43.33 55.6773 43.0202C54.5594 42.7104 53.657 42.3266 52.9701 41.8686C52.2967 41.3972 51.7781 40.9326 51.4145 40.4746C51.2933 40.2995 51.1855 40.1312 51.0912 39.9695C50.997 39.8079 50.9296 39.6261 50.8892 39.4241C50.8353 39.1547 50.7815 38.8045 50.7276 38.3735C50.6737 37.929 50.667 37.4172 50.7074 36.8381C50.7208 36.5956 50.768 36.4273 50.8488 36.333C50.9431 36.2252 51.098 36.1444 51.3135 36.0906C51.7041 35.9963 52.2091 35.9155 52.8287 35.8481C53.4617 35.7673 53.9129 35.7269 54.1823 35.7269C54.4651 35.7269 54.6941 35.7808 54.8692 35.8885C55.0443 35.9963 55.2531 36.1781 55.4955 36.434C55.7649 36.7168 56.2295 37.0805 56.8895 37.525C57.5495 37.956 58.5664 38.1715 59.9402 38.1715C61.2601 38.1715 62.2568 37.8954 62.9302 37.3431C63.6037 36.7909 63.9404 36.0232 63.9404 35.04C63.9404 34.5147 63.7788 34.0231 63.4555 33.5652C63.1457 33.0938 62.5733 32.6291 61.7382 32.1712C60.9032 31.6998 59.7112 31.2081 58.1623 30.6963C55.6032 29.8343 53.758 28.7636 52.6267 27.4841C51.4953 26.2045 50.9296 24.4267 50.9296 22.1504C50.9296 20.2648 51.3875 18.689 52.3034 17.4229C53.2193 16.1569 54.4853 15.2006 56.1016 14.5541C57.7178 13.9076 59.5833 13.5843 61.6978 13.5843C63.3276 13.5843 64.6744 13.7796 65.7385 14.1702C66.8159 14.5474 67.651 14.9784 68.2436 15.4632C68.8363 15.9346 69.2201 16.3185 69.3952 16.6148C69.503 16.7899 69.5703 16.9246 69.5972 17.0189C69.6376 17.0997 69.6646 17.2142 69.678 17.3623C69.7185 17.7798 69.7319 18.2445 69.7185 18.7563C69.705 19.2681 69.6578 19.8473 69.577 20.4938C69.5366 20.7093 69.4625 20.8574 69.3548 20.9383C69.2605 21.0056 69.1124 21.0393 68.9103 21.0393C67.6039 21.0662 66.5937 20.9989 65.8799 20.8372C65.597 20.7699 65.4085 20.7026 65.3142 20.6352C65.2199 20.5679 65.0987 20.4601 64.9505 20.312C64.735 20.0561 64.3916 19.7597 63.9202 19.423C63.4622 19.0728 62.7215 18.8977 61.6978 18.8977C60.2836 18.8977 59.2802 19.221 58.6876 19.8675C58.095 20.5005 57.7986 21.2144 57.7986 22.009C57.7986 22.9518 58.2364 23.6926 59.1118 24.2314C59.9873 24.7566 61.3679 25.356 63.2535 26.0294C64.8293 26.5816 66.1829 27.181 67.3143 27.8275C68.4457 28.474 69.3077 29.3023 69.9003 30.3125C70.5064 31.3226 70.8094 32.656 70.8094 34.3127C70.8094 36.3734 70.3313 38.0839 69.375 39.4443C68.4322 40.8046 67.1392 41.8215 65.496 42.4949C63.8663 43.1549 62.0144 43.4849 59.9402 43.4849ZM83.5373 43.5051C79.0388 43.5051 76.7895 41.1683 76.7895 36.4946V27.0194H74.5066C74.1025 27.0194 73.8197 26.9386 73.6581 26.7769C73.5099 26.6019 73.4358 26.3123 73.4358 25.9082V23.4232C73.4358 23.0192 73.5099 22.7363 73.6581 22.5747C73.8197 22.3996 74.1025 22.3121 74.5066 22.3121H76.7895V19.0594C76.7895 18.7361 76.8569 18.487 76.9916 18.3119C77.5572 17.5711 78.3856 16.7697 79.4765 15.9077C79.6651 15.773 79.8335 15.7057 79.9816 15.7057C80.1432 15.7057 80.3049 15.773 80.4665 15.9077C81.0456 16.3522 81.5305 16.7697 81.9211 17.1603C82.3252 17.5509 82.6686 17.9347 82.9515 18.3119C83.0861 18.487 83.1535 18.7361 83.1535 19.0594V22.3121H86.7294C87.1335 22.3121 87.4096 22.3996 87.5578 22.5747C87.7194 22.7363 87.8002 23.0192 87.8002 23.4232V25.9082C87.8002 26.3123 87.7194 26.6019 87.5578 26.7769C87.4096 26.9386 87.1335 27.0194 86.7294 27.0194H83.1535V35.3834C83.1535 37.5384 83.9347 38.6159 85.497 38.6159C85.7395 38.6159 85.9617 38.5957 86.1637 38.5553C86.3658 38.5015 86.5409 38.4476 86.689 38.3937C86.9719 38.286 87.1672 38.2455 87.2749 38.2725C87.3961 38.2994 87.5039 38.4476 87.5982 38.717L88.7699 41.8484C88.8912 42.1851 88.8103 42.4276 88.5275 42.5757C88.3255 42.67 87.8339 42.8451 87.0527 43.101C86.285 43.3704 85.1132 43.5051 83.5373 43.5051ZM98.5482 26.1506H98.629C99.6392 23.3492 101.457 21.9484 104.084 21.9484C104.421 21.9484 104.697 21.9686 104.912 22.009C105.128 22.036 105.276 22.0629 105.357 22.0898C105.559 22.1572 105.66 22.3121 105.66 22.5545V27.4234C105.66 27.841 105.417 27.9555 104.932 27.7669C104.771 27.6995 104.535 27.6322 104.225 27.5649C103.929 27.4841 103.511 27.4436 102.973 27.4436C101.585 27.4436 100.501 27.9555 99.72 28.9791C98.9388 29.9892 98.5482 31.3698 98.5482 33.1207V41.9292C98.5482 42.3333 98.4607 42.6161 98.2856 42.7778C98.124 42.9259 97.8411 43 97.437 43H93.2752C92.8712 43 92.5816 42.9259 92.4065 42.7778C92.2449 42.6161 92.1641 42.3333 92.1641 41.9292V24.9991C92.1641 24.6758 92.2314 24.4267 92.3661 24.2516C92.6489 23.8744 92.9856 23.4906 93.3762 23.1C93.7803 22.7094 94.2719 22.2919 94.8511 21.8474C94.9588 21.7666 95.0666 21.7127 95.1743 21.6858C95.2821 21.6588 95.3763 21.6454 95.4571 21.6454C95.6457 21.6454 95.8343 21.7127 96.0228 21.8474C97.1407 22.7229 97.9219 23.4704 98.3664 24.0899C98.4876 24.2516 98.5482 24.4401 98.5482 24.6556V26.1506ZM113.842 43.5051C111.862 43.5051 110.286 42.9529 109.114 41.8484C107.956 40.7305 107.377 39.1951 107.377 37.2421C107.377 36.232 107.559 35.2959 107.922 34.4339C108.3 33.5584 108.946 32.7907 109.862 32.1308C110.791 31.4573 112.084 30.9186 113.741 30.5145C115.411 30.1104 117.539 29.8747 120.125 29.8074C120.125 28.5817 119.815 27.6995 119.196 27.1608C118.59 26.6221 117.674 26.3527 116.448 26.3527C115.344 26.3527 114.441 26.5412 113.741 26.9184C113.041 27.2955 112.603 27.5514 112.428 27.6861C112.239 27.8477 112.01 27.9083 111.741 27.8679C111.377 27.814 110.987 27.7198 110.569 27.5851C110.165 27.4504 109.727 27.2955 109.256 27.1204C109.188 27.0935 109.114 27.0531 109.034 26.9992C108.953 26.9318 108.906 26.8376 108.892 26.7163C108.892 26.649 108.899 26.5682 108.912 26.4739C108.926 26.3661 108.96 26.1776 109.013 25.9082C109.067 25.6388 109.148 25.3089 109.256 24.9183C109.364 24.5142 109.465 24.2044 109.559 23.9889C109.68 23.76 109.882 23.5445 110.165 23.3424C110.394 23.1539 111.088 22.8508 112.246 22.4333C113.404 22.0158 115.081 21.807 117.276 21.807C123.324 21.807 126.348 24.7499 126.348 30.6357V42.0707C126.348 42.3266 126.274 42.5488 126.125 42.7374C125.991 42.9125 125.755 43 125.418 43H122.388C122.172 43 121.977 42.9731 121.802 42.9192C121.64 42.8518 121.485 42.7306 121.337 42.5555L120.085 40.9393H119.943C119.324 41.8417 118.489 42.4949 117.438 42.899C116.401 43.303 115.202 43.5051 113.842 43.5051ZM116.064 38.818C117.303 38.818 118.239 38.5015 118.872 37.8684C119.506 37.2354 119.91 36.5822 120.085 35.9087V33.6662C118.213 33.6662 116.805 33.8143 115.862 34.1107C114.933 34.3935 114.313 34.7706 114.004 35.242C113.694 35.7 113.539 36.1983 113.539 36.7371C113.539 37.5182 113.781 38.0637 114.266 38.3735C114.751 38.6698 115.35 38.818 116.064 38.818ZM138.813 43.5051C134.018 43.5051 131.621 40.6026 131.621 34.7976L131.6 24.5344C131.6 24.2112 131.668 23.962 131.802 23.7869C132.368 23.0461 133.196 22.2447 134.287 21.3827C134.476 21.248 134.644 21.1807 134.793 21.1807C134.968 21.1807 135.136 21.248 135.298 21.3827C135.877 21.8272 136.362 22.2447 136.752 22.6353C137.156 23.0259 137.5 23.4098 137.783 23.7869C137.917 23.962 137.985 24.2112 137.985 24.5344V34.2319C137.985 37.1546 139.143 38.6159 141.46 38.6159C142.604 38.6159 143.52 38.2186 144.207 37.424C144.894 36.6158 145.237 35.5249 145.237 34.1511V24.5344C145.237 24.2112 145.305 23.962 145.44 23.7869C146.005 23.0461 146.834 22.2447 147.925 21.3827C148.113 21.248 148.281 21.1807 148.43 21.1807C148.605 21.1807 148.773 21.248 148.935 21.3827C149.514 21.8272 149.999 22.2447 150.389 22.6353C150.793 23.0259 151.137 23.4098 151.42 23.7869C151.554 23.962 151.622 24.2112 151.622 24.5344V42.0707C151.622 42.3266 151.534 42.5488 151.359 42.7374C151.184 42.9125 150.962 43 150.692 43H147.662C147.446 43 147.251 42.9731 147.076 42.9192C146.914 42.8518 146.759 42.7306 146.611 42.5555L145.359 40.9393H145.217C145.002 41.2491 144.665 41.606 144.207 42.0101C143.763 42.4141 143.109 42.7643 142.247 43.0606C141.399 43.3569 140.254 43.5051 138.813 43.5051ZM175.603 24.4334C176.101 23.8273 176.869 23.2414 177.906 22.6757C178.956 22.0966 180.431 21.807 182.33 21.807C185.024 21.807 186.97 22.5006 188.169 23.8879C189.368 25.2752 189.967 27.3561 189.967 30.1307V41.9292C189.967 42.3333 189.88 42.6161 189.704 42.7778C189.543 42.9259 189.26 43 188.856 43H184.694C184.29 43 184 42.9259 183.825 42.7778C183.664 42.6161 183.583 42.3333 183.583 41.9292V31.1812C183.583 29.6727 183.307 28.5952 182.755 27.9487C182.202 27.2888 181.374 26.9588 180.27 26.9588C179.286 26.9588 178.505 27.181 177.926 27.6255C177.36 28.0565 176.956 28.6424 176.714 29.3831V41.9292C176.714 42.3333 176.626 42.6161 176.451 42.7778C176.29 42.9259 176.007 43 175.603 43H171.441C171.037 43 170.747 42.9259 170.572 42.7778C170.411 42.6161 170.33 42.3333 170.33 41.9292V31.1812C170.33 29.7131 170.027 28.6424 169.421 27.9689C168.814 27.2955 168.02 26.9588 167.037 26.9588C166.107 26.9588 165.36 27.1877 164.794 27.6457C164.228 28.1036 163.791 28.6828 163.481 29.3831V41.9292C163.481 42.3333 163.393 42.6161 163.218 42.7778C163.057 42.9259 162.774 43 162.37 43H158.208C157.804 43 157.514 42.9259 157.339 42.7778C157.178 42.6161 157.097 42.3333 157.097 41.9292V24.9991C157.097 24.6758 157.164 24.4267 157.299 24.2516C157.582 23.8744 157.918 23.4906 158.309 23.1C158.713 22.7094 159.205 22.2919 159.784 21.8474C159.959 21.7127 160.127 21.6454 160.289 21.6454C160.437 21.6454 160.605 21.7127 160.794 21.8474C161.36 22.2919 161.844 22.7161 162.248 23.1202C162.653 23.5243 163.009 23.9418 163.319 24.3728H163.42C163.878 23.7936 164.592 23.2212 165.562 22.6555C166.532 22.0898 167.919 21.807 169.724 21.807C171.448 21.807 172.727 22.0696 173.562 22.5949C174.397 23.1067 175.077 23.7195 175.603 24.4334ZM194.513 15.5238C194.513 15.3487 194.567 15.1939 194.674 15.0592C194.782 14.9245 194.924 14.7494 195.099 14.5339C195.476 14.1029 195.913 13.6517 196.412 13.1803C196.91 12.6954 197.415 12.2307 197.927 11.7863C198.25 11.5304 198.493 11.4024 198.654 11.4024C198.816 11.4024 199.065 11.5304 199.402 11.7863C200.493 12.7291 201.422 13.645 202.19 14.5339C202.365 14.7359 202.506 14.911 202.614 15.0592C202.735 15.1939 202.796 15.3487 202.796 15.5238C202.796 15.6989 202.735 15.8538 202.614 15.9885C202.506 16.1232 202.358 16.305 202.17 16.534C201.806 16.9515 201.382 17.4027 200.897 17.8876C200.412 18.359 199.914 18.8102 199.402 19.2412C199.213 19.4028 199.065 19.5106 198.957 19.5645C198.85 19.6049 198.749 19.6251 198.654 19.6251C198.56 19.6251 198.459 19.6049 198.351 19.5645C198.257 19.5106 198.102 19.4028 197.887 19.2412C197.348 18.8102 196.843 18.359 196.371 17.8876C195.9 17.4027 195.476 16.9381 195.099 16.4936C194.924 16.2781 194.782 16.1097 194.674 15.9885C194.567 15.8538 194.513 15.6989 194.513 15.5238ZM201.826 41.9292C201.826 42.3333 201.739 42.6161 201.564 42.7778C201.402 42.9259 201.119 43 200.715 43H196.553C196.149 43 195.86 42.9259 195.685 42.7778C195.523 42.6161 195.442 42.3333 195.442 41.9292V23.3828C195.442 22.9788 195.523 22.7027 195.685 22.5545C195.86 22.3929 196.149 22.3121 196.553 22.3121H200.715C201.119 22.3121 201.402 22.3929 201.564 22.5545C201.739 22.7027 201.826 22.9788 201.826 23.3828V41.9292ZM216.049 35.9895C214.622 36.8111 213.632 37.7068 213.079 38.6765C212.527 39.6463 212.251 40.8383 212.251 42.2525C212.251 42.5353 212.211 42.7306 212.13 42.8384C212.049 42.9461 211.874 43 211.605 43H206.897C206.305 43 206.008 42.6161 206.008 41.8484C206.008 40.0167 206.379 38.3802 207.119 36.9391C207.874 35.4979 209.194 34.2117 211.079 33.0803C209.652 32.2856 208.527 31.2081 207.705 29.8478C206.897 28.4875 206.493 27.0463 206.493 25.5244V25.2011C206.493 24.8779 206.561 24.6287 206.695 24.4536C207.261 23.7128 208.089 22.9114 209.18 22.0494C209.369 21.9147 209.537 21.8474 209.685 21.8474C209.86 21.8474 210.029 21.9147 210.19 22.0494C210.769 22.4939 211.254 22.9114 211.645 23.302C212.049 23.6926 212.392 24.0765 212.675 24.4536C212.81 24.6287 212.877 24.8779 212.877 25.2011V25.5244C212.877 27.4504 213.995 28.9387 216.231 29.9892C217.255 29.4235 217.975 28.7703 218.393 28.0295C218.824 27.2888 219.039 26.4537 219.039 25.5244V25.2011C219.039 24.8779 219.107 24.6287 219.241 24.4536C219.78 23.7128 220.588 22.9114 221.666 22.0494C221.841 21.9147 222.002 21.8474 222.151 21.8474C222.326 21.8474 222.487 21.9147 222.635 22.0494C223.201 22.4939 223.679 22.9114 224.07 23.302C224.46 23.6926 224.79 24.0765 225.06 24.4536C225.194 24.6287 225.262 24.8779 225.262 25.2011V25.5244C225.262 27.1945 224.891 28.6356 224.151 29.8478C223.41 31.06 222.44 32.0634 221.241 32.8581C222.912 33.8009 224.13 35.0467 224.898 36.5956C225.666 38.1311 226.05 39.882 226.05 41.8484C226.05 42.3064 225.996 42.6161 225.888 42.7778C225.78 42.9259 225.545 43 225.181 43H220.373C219.901 43 219.666 42.6768 219.666 42.0303C219.666 41.1548 219.578 40.3736 219.403 39.6867C219.241 38.9998 218.905 38.36 218.393 37.7674C217.881 37.1613 217.1 36.5687 216.049 35.9895Z" fill="black"/>
</svg>
